{"title":"The Dragon Prince S01E01 (1080p)V2 [XxUnkn0wnxX] ","magnet":"magnet:?xt=urn:btih:5953ca6aac780040712aa470bc2b523ce1d7d616&dn=The+Dragon+Prince+S01E01+%281080p%29V2+%5BXxUnkn0wnxX%5D+&tr=udp%3A%2F%2Ftracker.leechers-paradise.org%3A6969&tr=udp%3A%2F%2Fzer0day.ch%3A1337&tr=udp%3A%2F%2Fopen.demonii.com%3A1337&tr=udp%3A%2F%2Ftracker.coppersurfer.tk%3A6969&tr=udp%3A%2F%2Fexodus.desync.com%3A6969","uploader":"Unkn0wnxX","categoryP":"video","categoryS":"tv_shows","size":"694122134","seeders":"0","leechers":"0","description":"Title: The Dragon Prince S01E01 (1080p WebRip)V2 [XxUnkn0wnxX] \r\n\r\nResolution: 1920x1080 (HD 1080P)\r\n\r\nGeneral\r\nUnique ID                                : 51994320666506522682355700630389457195 (0x271DBDEDE097695E8EFF01E26567012B)\r\nComplete name                            : The Dragon Prince S01E01 [1080p].mkv\r\nFormat                                   : Matroska\r\nFormat version                           : Version 4\r\nFile size                                : 662 MiB\r\nDuration                                 : 22mn 31s\r\nOverall bit rate                         : 4 109 Kbps\r\nEncoded date                             : UTC 2018-09-15T02:54:19Z\r\nWriting application                      : HandBrake 1.1.2 2018090500\r\nWriting library                          : Lavf57.7.2\r\n\r\nVideo\r\nID                                       : 1\r\nFormat                                   : AVC\r\nFormat/Info                              : Advanced Video Codec\r\nFormat profile                           : Main@L5\r\nFormat settings                          : CABAC / 5 Ref Frames\r\nFormat settings, CABAC                   : Yes\r\nFormat settings, ReFrames                : 5 frames\r\nCodec ID                                 : V_MPEG4/ISO/AVC\r\nDuration                                 : 22mn 31s\r\nBit rate                                 : 3 771 Kbps\r\nWidth                                    : 1 920 pixels\r\nHeight                                   : 1 080 pixels\r\nDisplay aspect ratio                     : 16:9\r\nFrame rate mode                          : Constant\r\nFrame rate                               : 24.000 fps\r\nColor space                              : YUV\r\nChroma subsampling                       : 4:2:0\r\nBit depth                                : 8 bits\r\nScan type                                : Progressive\r\nBits/(Pixel*Frame)                       : 0.076\r\nStream size                              : 608 MiB (92%)\r\nWriting library                          : x264 core 155 r2901 7d0ff22\r\nDefault                                  : Yes\r\nForced                                   : No\r\nColor range                              : Limited\r\nColor primaries                          : BT.709\r\nTransfer characteristics                 : BT.709\r\nMatrix coefficients                      : BT.709\r\n\r\nAudio\r\nID                                       : 2\r\nFormat                                   : AC-3\r\nFormat/Info                              : Audio Coding 3\r\nCommercial name                          : Dolby Digital\r\nCodec ID                                 : A_AC3\r\nDuration                                 : 22mn 31s\r\nBit rate mode                            : Constant\r\nBit rate                                 : 256 Kbps\r\nChannel(s)                               : 2 channels\r\nChannel layout                           : L R\r\nSampling rate                            : 48.0 KHz\r\nFrame rate                               : 31.250 fps (1536 SPF)\r\nBit depth                                : 16 bits\r\nCompression mode                         : Lossy\r\nStream size                              : 41.2 MiB (6%)\r\nTitle                                    : Stereo\r\nService kind                             : Complete Main\r\nDefault                                  : Yes\r\nForced                                   : No\r\n\r\nFinal Release, Quality Fixed up &amp; Choppiness reduced, barely noticeable","last_updated":"2018-09-15T12:20:09.341Z","parsed":{"xt":"urn:btih:5953ca6aac780040712aa470bc2b523ce1d7d616","dn":"The Dragon Prince S01E01 (1080p)V2 [XxUnkn0wnxX] ","tr":["udp://exodus.desync.com:6969","udp://open.demonii.com:1337","udp://tracker.coppersurfer.tk:6969","udp://tracker.leechers-paradise.org:6969","udp://zer0day.ch:1337"],"infoHash":"5953ca6aac780040712aa470bc2b523ce1d7d616","infoHashBuffer":{"type":"Buffer","data":[89,83,202,106,172,120,0,64,113,42,164,112,188,43,82,60,225,215,214,22]},"name":"The Dragon Prince S01E01 (1080p)V2 [XxUnkn0wnxX] ","announce":["udp://exodus.desync.com:6969","udp://open.demonii.com:1337","udp://tracker.coppersurfer.tk:6969","udp://tracker.leechers-paradise.org:6969","udp://zer0day.ch:1337"],"urlList":[]}}